<?xml version="1.0" standalone="no"?>
<!DOCTYPE svg PUBLIC "-//W3C//DTD SVG 20010904//EN"
 "http://www.w3.org/TR/2001/REC-SVG-20010904/DTD/svg10.dtd">
<svg version="1.0" xmlns="http://www.w3.org/2000/svg"
 width="260.000000pt" height="260.000000pt" viewBox="0 0 260.000000 260.000000"
 preserveAspectRatio="xMidYMid meet">
<metadata>
Created by potrace 1.11, written by Peter Selinger 2001-2013
</metadata>
<g transform="translate(0.000000,260.000000) scale(0.100000,-0.100000)"
fill="#000000" stroke="none">
<path d="M823 2040 c-23 -9 -23 -11 -23 -212 0 -235 4 -248 71 -248 37 0 40 2
61 48 50 111 62 132 99 170 41 41 134 92 168 92 21 0 37 22 58 80 20 57 17 67
-24 74 -58 9 -385 6 -410 -4z"/>
<path d="M1323 1993 c-14 -32 -56 -130 -93 -218 -37 -88 -77 -180 -88 -205
-11 -25 -51 -117 -88 -205 -103 -248 -232 -554 -260 -617 -20 -46 -24 -71 -22
-125 l3 -68 232 -3 232 -2 20 37 c10 21 53 119 95 218 42 99 81 189 86 200 11
23 272 631 336 783 38 91 44 113 44 177 0 57 -3 74 -16 79 -9 3 -115 6 -235 6
l-220 0 -26 -57z"/>
<path d="M1688 983 c-51 -119 -62 -138 -101 -180 -39 -43 -142 -102 -177 -103
-46 -1 -89 -63 -90 -127 l0 -23 245 0 c225 0 246 2 253 18 12 29 7 404 -6 435
-10 24 -17 27 -57 27 -45 0 -46 -1 -67 -47z"/>
</g>
</svg>
